<svg xmlns="http://www.w3.org/2000/svg" xmlns:xlink="http://www.w3.org/1999/xlink" version="1.1" id="Layer_1" x="0px" y="0px" width="50px" height="50px" viewBox="0 0 50 50" enable-background="new 0 0 50 50" xml:space="preserve">
<g>
	<path fill="#000000" d="M48.055,35.67c0,5.193-4.213,9.402-9.408,9.402c-5.186,0-9.395-4.209-9.395-9.402   c0-5.191,4.209-9.399,9.395-9.399C43.842,26.271,48.055,30.479,48.055,35.67z"/>
	<path fill="#000000" d="M16.265,21.345c0,3.954-3.206,7.163-7.159,7.163c-3.957,0-7.16-3.209-7.16-7.163   c0-3.956,3.203-7.163,7.16-7.163C13.059,14.182,16.265,17.389,16.265,21.345z"/>
	<path fill="#000000" d="M37.793,10.526c0,3.09-2.51,5.597-5.598,5.597c-3.09,0-5.596-2.507-5.596-5.597   c0-3.091,2.506-5.599,5.596-5.599C35.283,4.928,37.793,7.436,37.793,10.526z"/>
	<path fill="#000000" d="M37.924,34.82c-0.713,1.711-2.959,2.402-5.01,1.544L12.257,27.74c-2.056-0.855-3.14-2.939-2.424-4.649l0,0   c0.713-1.712,2.956-2.403,5.01-1.547L35.5,30.171C37.553,31.025,38.639,33.109,37.924,34.82L37.924,34.82z"/>
	<path fill="#000000" d="M9.717,21.233c-0.648-1.222,0.032-2.854,1.519-3.644l14.971-7.944c1.488-0.789,3.221-0.438,3.871,0.785l0,0   c0.646,1.22-0.033,2.854-1.523,3.642l-14.969,7.944C12.102,22.808,10.367,22.457,9.717,21.233L9.717,21.233z"/>
</g>
</svg>