<svg xmlns="http://www.w3.org/2000/svg" xmlns:xlink="http://www.w3.org/1999/xlink" version="1.1" id="Your_Icon" x="0px" y="0px" width="100px" height="100px" viewBox="0 0 100 100" enable-background="new 0 0 100 100" xml:space="preserve">
<g>
	<path fill="#000000" d="M42.832,36.231c0.969-0.261,1.543-1.253,1.283-2.218c-0.261-0.971-1.252-1.539-2.213-1.284   c-0.971,0.261-1.543,1.253-1.284,2.218C40.875,35.915,41.866,36.492,42.832,36.231z"/>
	<path fill="#000000" d="M54.447,32.729c-0.961-0.256-1.958,0.312-2.219,1.278c-0.256,0.971,0.318,1.963,1.282,2.224   c0.966,0.261,1.959-0.316,2.22-1.284C55.992,33.982,55.415,32.99,54.447,32.729z"/>
	<path fill="#000000" d="M62.754,39.005c-0.707,0.711-0.707,1.852,0,2.562c0.712,0.71,1.855,0.71,2.565,0   c0.7-0.71,0.7-1.852,0-2.562C64.609,38.296,63.466,38.296,62.754,39.005z"/>
	<path fill="#000000" d="M68.091,50.814c0.265,0.971,1.255,1.536,2.217,1.281c0.971-0.258,1.543-1.256,1.284-2.218   c-0.258-0.966-1.247-1.542-2.217-1.284C68.406,48.854,67.838,49.846,68.091,50.814z"/>
	<path fill="#000000" d="M70.312,60.206c-0.967-0.256-1.957,0.316-2.223,1.283c-0.253,0.967,0.316,1.958,1.285,2.219   c0.968,0.261,1.957-0.312,2.217-1.284C71.851,61.464,71.278,60.466,70.312,60.206z"/>
	<path fill="#000000" d="M62.754,70.738c-0.707,0.704-0.707,1.854,0,2.559c0.712,0.709,1.855,0.709,2.565,0   c0.7-0.706,0.7-1.856,0-2.559C64.609,70.025,63.466,70.025,62.754,70.738z"/>
	<path fill="#000000" d="M53.511,76.075c-0.964,0.255-1.538,1.249-1.282,2.213c0.261,0.973,1.248,1.539,2.219,1.284   c0.967-0.258,1.544-1.25,1.283-2.218C55.47,76.391,54.477,75.814,53.511,76.075z"/>
	<path fill="#000000" d="M42.832,76.075c-0.966-0.261-1.957,0.313-2.215,1.279c-0.261,0.967,0.313,1.96,1.284,2.218   c0.961,0.257,1.954-0.317,2.213-1.284C44.375,77.325,43.801,76.33,42.832,76.075z"/>
	<path fill="#000000" d="M31.028,70.738c-0.71,0.704-0.71,1.854,0,2.559c0.706,0.709,1.852,0.709,2.561,0   c0.705-0.706,0.705-1.856,0-2.559C32.88,70.025,31.734,70.025,31.028,70.738z"/>
	<path fill="#000000" d="M26.036,60.211c-0.966,0.256-1.543,1.249-1.284,2.213c0.261,0.973,1.253,1.541,2.219,1.284   c0.968-0.261,1.539-1.25,1.284-2.219C27.993,60.522,27.001,59.95,26.036,60.211z"/>
	<path fill="#000000" d="M26.971,48.594c-0.966-0.259-1.958,0.316-2.219,1.284c-0.259,0.962,0.318,1.96,1.284,2.218   c0.966,0.255,1.957-0.311,2.219-1.281C28.51,49.847,27.938,48.854,26.971,48.594z"/>
	<path fill="#000000" d="M87.021,30.348l-9.927-9.927c-1.306-1.306-3.422-1.304-4.726,0c-1.306,1.306-1.306,3.422,0,4.728   l2.864,2.864l-2.305,2.304c-5.426-5.155-12.464-8.629-20.271-9.578v-7.18h3.137c2.399,0,4.344-1.946,4.344-4.346   c0-2.398-1.944-4.345-4.344-4.345H40.551c-2.4,0-4.345,1.946-4.345,4.345c0,2.4,1.944,4.346,4.345,4.346h3.416v7.18   c-17.678,2.15-31.419,17.249-31.419,35.498C12.548,75.956,28.591,92,48.311,92c19.721,0,35.765-16.044,35.765-35.764   c0-7.783-2.502-14.994-6.741-20.871l2.625-2.625l2.333,2.333c0.653,0.653,1.509,0.98,2.363,0.98c0.856,0,1.712-0.327,2.364-0.98   C88.326,33.77,88.326,31.652,87.021,30.348z M48.311,85.315c-16.034,0-29.079-13.045-29.079-29.079   c0-16.032,13.044-29.077,29.079-29.077c16.035,0,29.079,13.045,29.079,29.077C77.39,72.271,64.346,85.315,48.311,85.315z"/>
	<path fill="#000000" d="M51.342,52.69c-0.219-0.215-0.448-0.397-0.69-0.562l0.02-0.027L33.297,39.005   c-0.71-0.708-1.855-0.708-2.559,0c-0.71,0.711-0.71,1.852,0,2.562L43.831,58.94l0.026-0.022c0.165,0.245,0.351,0.477,0.563,0.691   c1.911,1.91,5.01,1.91,6.921,0C53.245,57.701,53.245,54.601,51.342,52.69z"/>
</g>
</svg>