<?xml version="1.0" standalone="no"?>
<!DOCTYPE svg PUBLIC "-//W3C//DTD SVG 1.1//EN" "http://www.w3.org/Graphics/SVG/1.1/DTD/svg11.dtd" >
<svg xmlns="http://www.w3.org/2000/svg">
<metadata>Generated by IcoMoon</metadata>
<defs>
<font id="apicatus" horiz-adv-x="512">
<font-face units-per-em="512" ascent="480" descent="-32" />
<missing-glyph horiz-adv-x="512" />
<glyph unicode="&#x20;" d="" horiz-adv-x="256" />
<glyph unicode="&#xe039;" d="M624 480c-26.464 0-48-21.536-48-48 0-14.208 6.336-26.864 16.176-35.664l-140.8-224.496c-5.936 2.64-12.48 4.16-19.376 4.16-13.888 0-26.304-6.016-35.088-15.472l-145.168 91.92c2.688 5.984 4.256 12.576 4.256 19.552 0 26.464-21.536 48-48 48s-48-21.536-48-48c0-14.464 6.56-27.296 16.704-36.096l-110.32-175.6c-5.664 2.368-11.872 3.696-18.384 3.696-26.464 0-48-21.536-48-48s21.536-48 48-48 48 21.536 48 48c0 14.208-6.32 26.848-16.16 35.648l110.464 175.84c5.488-2.208 11.44-3.488 17.696-3.488 13.744 0 26.064 5.872 34.816 15.152l145.248-91.968c-2.576-5.888-4.064-12.352-4.064-19.184 0-26.464 21.536-48 48-48s48 21.536 48 48c0 13.808-5.936 26.176-15.312 34.944l140.96 224.736c5.664-2.352 11.856-3.68 18.352-3.68 26.464 0 48 21.536 48 48s-21.536 48-48 48zM80 16c0-17.648-14.352-32-32-32s-32 14.352-32 32 14.352 32 32 32 32-14.352 32-32zM208 240c-17.648 0-32 14.352-32 32s14.352 32 32 32 32-14.352 32-32-14.352-32-32-32zM432 96c-17.648 0-32 14.352-32 32s14.352 32 32 32 32-14.352 32-32-14.352-32-32-32zM624 400c-17.648 0-32 14.352-32 32s14.352 32 32 32 32-14.352 32-32-14.352-32-32-32z" horiz-adv-x="672" />
<glyph unicode="&#xe600;" d="M64 32h448v-64h-512v512h64zM144 64c-26.51 0-48 21.49-48 48s21.49 48 48 48c1.414 0 2.811-0.074 4.194-0.193l51.596 85.993c-4.92 7.535-7.79 16.531-7.79 26.201 0 26.51 21.49 48 48 48 26.51 0 48-21.49 48-48 0-9.671-2.87-18.666-7.79-26.201l51.596-85.993c1.383 0.119 2.78 0.193 4.194 0.193 1.068 0 2.124-0.047 3.175-0.115l85.178 149.061c-5.268 7.704-8.353 17.018-8.353 27.055 0 26.51 21.49 48 48 48 26.51 0 48-21.49 48-48 0-26.51-21.49-48-48-48-1.070 0-2.124 0.047-3.175 0.116l-85.178-149.062c5.268-7.703 8.353-17.018 8.353-27.055 0-26.51-21.49-48-48-48-26.51 0-48 21.49-48 48 0 9.67 2.87 18.666 7.789 26.201l-51.595 85.992c-1.383-0.119-2.78-0.193-4.194-0.193s-2.811 0.073-4.194 0.193l-51.596-85.993c4.92-7.534 7.79-16.53 7.79-26.2 0-26.51-21.49-48-48-48z" />
<glyph unicode="&#xe601;" d="M224 192v224c-123.712 0-224-100.288-224-224s100.288-224 224-224 224 100.288 224 224c0 36.017-8.514 70.042-23.618 100.191l-200.382-100.191zM456.382 356.191c-36.776 73.408-112.687 123.809-200.382 123.809v-224l200.382 100.191z" />
<glyph unicode="&#xe602;" d="M288 448c123.712 0 224-100.288 224-224s-100.288-224-224-224v48c47.012 0 91.209 18.307 124.451 51.549 33.242 33.242 51.549 77.439 51.549 124.451 0 47.011-18.307 91.209-51.549 124.451-33.242 33.242-77.439 51.549-124.451 51.549-47.011 0-91.209-18.307-124.451-51.549-25.57-25.569-42.291-57.623-48.653-92.451h93.104l-112-128-112 128h82.285c15.53 108.551 108.869 192 221.715 192zM384 256v-64h-128v160h64v-96z" />
<glyph unicode="&#xe603;" d="M224 416v8c0 13.2-10.8 24-24 24h-80c-13.2 0-24-10.8-24-24v-8h-96v-64h96v-8c0-13.2 10.8-24 24-24h80c13.2 0 24 10.8 24 24v8h288v64h-288zM128 352v64h64v-64h-64zM416 264c0 13.2-10.8 24-24 24h-80c-13.2 0-24-10.8-24-24v-8h-288v-64h288v-8c0-13.2 10.8-24 24-24h80c13.2 0 24 10.8 24 24v8h96v64h-96v8zM320 192v64h64v-64h-64zM224 104c0 13.2-10.8 24-24 24h-80c-13.2 0-24-10.8-24-24v-8h-96v-64h96v-8c0-13.2 10.8-24 24-24h80c13.2 0 24 10.8 24 24v8h288v64h-288v8zM128 32v64h64v-64h-64z" />
<glyph unicode="&#xe604;" d="M510.784 184.72l-64.032 240.096c-3.872 13.648-16.528 23.184-30.752 23.184h-320c-14.24 0-26.88-9.536-30.752-23.184l-64.032-240.096c-0.816-2.912-1.216-5.84-1.216-8.72v-112c0-35.344 28.656-64 64-64h384c35.344 0 64 28.656 64 64v112c0 2.88-0.4 5.808-1.216 8.72zM480 64c0-17.632-14.368-32-32-32h-384c-17.648 0-32 14.368-32 32v112l64.016 240.016h319.952l64.032-240.016v-112zM379.872 384h-247.744c-7.248 0-13.6-4.88-15.472-11.888l-55.12-192c-1.264-4.816-0.256-9.936 2.784-13.872s7.712-6.24 12.672-6.24h73.088l23.152-46.32c5.44-10.832 16.512-17.68 28.64-17.68h108.256c12.128 0 23.184 6.848 28.624 17.68l23.152 46.32h73.088c4.976 0 9.664 2.32 12.688 6.256s4.032 9.056 2.784 13.872l-55.12 192c-1.872 7.008-8.224 11.872-15.472 11.872zM388.496 192h-26.592c-12.192 0-23.152-6.752-28.624-17.68l-23.152-46.32h-108.256l-23.152 46.32c-5.472 10.928-16.432 17.68-28.624 17.68h-64.752l46.784 176h247.744l46.784-176h-38.16z" />
<glyph unicode="&#xe605;" d="M256 480c-107.904 0-224-32.528-224-104v-304c0-71.44 116.096-104 224-104 107.888 0 224 32.56 224 104v304c0 71.472-116.128 104-224 104zM448 72c0-39.744-85.968-72-192-72-106.048 0-192 32.256-192 72v59.776c33.056-34.064 112.8-51.776 192-51.776s158.944 17.712 192 51.776v-59.776zM448 168h-0.064c0-0.16 0.064-0.336 0.064-0.496 0-39.504-85.968-71.504-192-71.504-106.032 0-192 32-192 71.504 0 0.16 0.064 0.336 0.064 0.496h-0.064v59.776c33.056-34.064 112.8-51.776 192-51.776s158.944 17.712 192 51.776v-59.776zM448 264h-0.064c0-0.16 0.064-0.336 0.064-0.496 0-39.504-85.968-71.504-192-71.504-106.032 0-192 32-192 71.504 0 0.16 0.064 0.336 0.064 0.496h-0.064v54.976c41.936-31.952 118.8-46.976 192-46.976s150.064 15.024 192 46.976v-54.976zM256 304c-106.048 0-192 32.256-192 72 0 39.776 85.952 72 192 72 106.032 0 192-32.224 192-72 0-39.744-85.968-72-192-72zM384 64c0 8.837 7.163 16 16 16s16-7.163 16-16c0-8.837-7.163-16-16-16-8.837 0-16 7.163-16 16zM384 160c0 8.837 7.163 16 16 16s16-7.163 16-16c0-8.837-7.163-16-16-16-8.837 0-16 7.163-16 16zM384 256c0 8.837 7.163 16 16 16s16-7.163 16-16c0-8.837-7.163-16-16-16-8.837 0-16 7.163-16 16z" />
<glyph unicode="&#xe606;" d="M416 256h-32v96c0 70.692-57.308 128-128 128s-128-57.308-128-128v-96h-32c-17.6 0-32-14.4-32-32v-224c0-17.6 14.4-32 32-32h320c17.6 0 32 14.4 32 32v224c0 17.6-14.4 32-32 32zM256 64c-17.673 0-32 14.327-32 32s14.327 32 32 32 32-14.327 32-32-14.327-32-32-32zM320 256h-128v96c0 35.29 28.71 64 64 64s64-28.71 64-64v-96z" />
<glyph unicode="&#xe607;" d="M192 448h-160c-17.6 0-32-14.4-32-32v-160c0-17.6 14.398-32 32-32h160c17.6 0 32 14.4 32 32v160c0 17.6-14.4 32-32 32zM192 320h-160v32h160v-32zM448 448h-160c-17.602 0-32-14.4-32-32v-416c0-17.6 14.398-32 32-32h160c17.6 0 32 14.4 32 32v416c0 17.6-14.4 32-32 32zM448 160h-160v32h160v-32zM448 256h-160v32h160v-32zM192 192h-160c-17.6 0-32-14.4-32-32v-160c0-17.6 14.398-32 32-32h160c17.6 0 32 14.4 32 32v160c0 17.6-14.4 32-32 32zM192 64h-64v-64h-32v64h-64v32h64v64h32v-64h64v-32z" />
<glyph unicode="&#xe608;" d="M512 320l-256 128-256-128 256-128 256 128zM256 405.515l171.029-85.515-171.029-85.515-171.029 85.515 171.029 85.515zM460.722 249.639l51.278-25.639-256-128-256 128 51.278 25.639 204.722-102.361zM460.722 153.639l51.278-25.639-256-128-256 128 51.278 25.639 204.722-102.361z" />
<glyph unicode="&#xe609;" d="M0 64h512v-64h-512zM64 192h64v-96h-64zM160 320h64v-224h-64zM256 224h64v-128h-64zM352 416h64v-320h-64z" />
<glyph unicode="&#xe60a;" d="M476.27 453.353c0 0-20.437 20.55-224.811 20.55s-224.811-20.55-224.811-20.55-20.55-20.437-20.55-224.811 20.55-224.811 20.55-224.811 20.437-20.324 224.811-20.324 224.811 20.324 224.811 20.324 20.324 20.324 20.324 224.811-20.324 224.811-20.324 224.811zM438.915 41.085c0 0-17.031-16.917-187.343-16.917s-187.343 16.917-187.343 16.917-17.145 17.031-17.145 187.343 17.145 187.343 17.145 187.343 17.031 17.145 187.343 17.145 187.343-17.145 187.343-17.145 16.917-16.917 16.917-187.343-16.917-187.343-16.917-187.343zM422.791 258.63c-2.271 15.328-37.809-21.459-56.544-17.826-18.281 0.681-42.124 15.215-65.854 17.712-33.154 2.725-44.621-16.236-66.876-16.009-3.519 29.067 5.109 64.605-9.65 98.1-21.686 38.604-55.181 30.769-65.173 29.748-52.002-17.712-35.879-45.303-75.278-64.605-28.159-13.852-8.743-20.892 3.633-26.909 21.119-6.244 35.652-4.656 40.989-26-1.136-28.159-23.844-58.815-20.21-96.283 8.743-25.547 23.049-67.557 53.932-69.034 73.575-2.158 158.731-5.109 200.514 6.813 32.587 7.494 73.347 141.245 60.517 164.293z" />
<glyph unicode="&#xe60b;" d="M128 383.664v48.336c0 26.464-21.536 48-48 48s-48-21.536-48-48v-48.336c-19.328-14.64-32-37.568-32-63.664s12.672-49.024 32-63.632v-240.368c0-26.464 21.536-48 48-48s48 21.536 48 48v240.368c19.328 14.592 32 37.536 32 63.632s-12.672 49.024-32 63.664zM64 432c0 8.848 7.152 16 16 16s16-7.152 16-16v-33.6c-5.168 1.040-10.512 1.6-16 1.6s-10.832-0.56-16-1.6v33.6zM96 16c0-8.848-7.152-16-16-16s-16 7.152-16 16v225.632c5.168-1.072 10.512-1.632 16-1.632s10.832 0.56 16 1.632v-225.632zM125.84 306.56c-0.256-0.848-0.48-1.68-0.784-2.528-1.52-4.224-3.472-8.224-6.048-11.776-0.064-0.096-0.16-0.16-0.224-0.256-2.784-3.808-6.096-7.184-9.856-10.032-0.064-0.064-0.112-0.096-0.16-0.128-3.856-2.912-8.16-5.248-12.784-6.88-5.008-1.808-10.336-2.96-15.984-2.96s-10.976 1.152-16 2.976c-4.624 1.632-8.928 3.968-12.784 6.88-0.048 0.032-0.096 0.064-0.16 0.128-3.76 2.848-7.072 6.224-9.856 10.032-0.064 0.096-0.16 0.16-0.224 0.256-2.576 3.568-4.528 7.568-6.048 11.776-0.304 0.848-0.528 1.68-0.784 2.528-1.264 4.272-2.144 8.736-2.144 13.424 0 4.72 0.88 9.184 2.16 13.472 0.256 0.848 0.48 1.68 0.784 2.496 1.504 4.224 3.456 8.224 6.048 11.808 0.064 0.096 0.16 0.16 0.224 0.256 2.784 3.776 6.096 7.184 9.856 10.032 0.064 0.032 0.112 0.096 0.16 0.128 3.84 2.864 8.144 5.216 12.768 6.864 5.024 1.792 10.352 2.944 16 2.944s10.976-1.152 16-2.944c4.624-1.664 8.928-4 12.784-6.88 0.048-0.032 0.096-0.096 0.16-0.128 3.76-2.848 7.072-6.256 9.856-10.032 0.064-0.096 0.16-0.16 0.224-0.256 2.576-3.568 4.528-7.568 6.032-11.792 0.304-0.816 0.544-1.648 0.784-2.496 1.28-4.288 2.16-8.752 2.16-13.472 0-4.688-0.88-9.152-2.16-13.44zM480 383.664v48.336c0 26.464-21.536 48-48 48s-48-21.536-48-48v-48.336c-19.344-14.64-32-37.568-32-63.664s12.656-49.024 32-63.632v-240.368c0-26.464 21.536-48 48-48s48 21.536 48 48v240.368c19.312 14.592 32 37.536 32 63.632s-12.688 49.024-32 63.664zM416 432c0 8.848 7.152 16 16 16s16-7.152 16-16v-33.6c-5.184 1.040-10.528 1.6-16 1.6-5.504 0-10.848-0.56-16-1.6v33.6zM448 16c0-8.848-7.152-16-16-16s-16 7.152-16 16v225.632c5.152-1.072 10.496-1.632 16-1.632 5.472 0 10.816 0.56 16 1.632v-225.632zM477.84 306.56c-0.256-0.848-0.496-1.68-0.784-2.528-1.536-4.224-3.472-8.224-6.064-11.776-0.064-0.096-0.16-0.16-0.224-0.256-2.784-3.808-6.096-7.184-9.84-10.032-0.064-0.064-0.128-0.096-0.16-0.128-3.872-2.912-8.16-5.248-12.784-6.88-5.008-1.808-10.352-2.96-15.984-2.96-5.664 0-10.976 1.152-16 2.976-4.624 1.632-8.944 3.968-12.784 6.88-0.064 0.032-0.096 0.064-0.16 0.128-3.776 2.848-7.088 6.224-9.872 10.032-0.064 0.096-0.16 0.16-0.224 0.256-2.56 3.568-4.528 7.568-6.032 11.776-0.32 0.848-0.528 1.68-0.784 2.528-1.264 4.272-2.144 8.736-2.144 13.424 0 4.72 0.88 9.184 2.16 13.472 0.256 0.848 0.464 1.68 0.784 2.496 1.504 4.224 3.472 8.224 6.032 11.808 0.064 0.096 0.16 0.16 0.224 0.256 2.784 3.776 6.096 7.184 9.872 10.032 0.064 0.032 0.096 0.096 0.16 0.128 3.84 2.88 8.16 5.216 12.784 6.88 5.008 1.776 10.32 2.928 15.984 2.928 5.632 0 10.976-1.152 16-2.944 4.624-1.664 8.912-4 12.784-6.88 0.032-0.032 0.096-0.096 0.16-0.128 3.744-2.848 7.056-6.256 9.84-10.032 0.064-0.096 0.16-0.16 0.224-0.256 2.592-3.6 4.528-7.6 6.064-11.808 0.288-0.816 0.528-1.664 0.784-2.496 1.264-4.272 2.144-8.736 2.144-13.456 0-4.688-0.88-9.152-2.16-13.44zM304 191.664v240.336c0 26.464-21.536 48-48 48s-48-21.536-48-48v-240.336c-19.328-14.624-32-37.568-32-63.664s12.672-49.024 32-63.632v-48.368c0-26.464 21.536-48 48-48s48 21.536 48 48v48.368c19.312 14.592 32 37.536 32 63.632s-12.688 49.024-32 63.664zM240 432c0 8.848 7.152 16 16 16s16-7.152 16-16v-225.6c-5.184 1.024-10.528 1.6-16 1.6-5.488 0-10.832-0.56-16-1.6v225.6zM272 16c0-8.848-7.152-16-16-16s-16 7.152-16 16v33.632c5.168-1.072 10.512-1.632 16-1.632 5.472 0 10.816 0.56 16 1.632v-33.632zM301.84 114.56c-0.256-0.848-0.496-1.68-0.784-2.528-1.536-4.224-3.472-8.224-6.064-11.776-0.064-0.096-0.16-0.16-0.224-0.256-2.784-3.808-6.096-7.184-9.84-10.032-0.064-0.064-0.128-0.096-0.16-0.128-3.872-2.912-8.16-5.248-12.784-6.88-5.008-1.808-10.352-2.96-15.984-2.96-5.648 0-10.976 1.152-16 2.976-4.624 1.632-8.928 3.968-12.784 6.88-0.048 0.032-0.096 0.064-0.16 0.128-3.76 2.848-7.072 6.224-9.856 10.032-0.064 0.096-0.16 0.16-0.224 0.256-2.576 3.568-4.528 7.568-6.048 11.776-0.304 0.848-0.528 1.68-0.784 2.528-1.264 4.272-2.144 8.736-2.144 13.424 0 4.72 0.88 9.184 2.16 13.472 0.256 0.848 0.48 1.68 0.784 2.496 1.52 4.224 3.472 8.224 6.048 11.808 0.064 0.096 0.16 0.16 0.224 0.256 2.784 3.776 6.096 7.184 9.856 10.032 0.064 0.032 0.112 0.096 0.16 0.128 3.856 2.88 8.16 5.216 12.784 6.88 5.008 1.776 10.336 2.928 15.984 2.928 5.632 0 10.976-1.152 16-2.944 4.624-1.664 8.912-4 12.784-6.88 0.032-0.032 0.096-0.096 0.16-0.128 3.744-2.848 7.056-6.256 9.84-10.032 0.064-0.096 0.16-0.16 0.224-0.256 2.592-3.6 4.528-7.6 6.064-11.808 0.288-0.816 0.528-1.664 0.784-2.496 1.264-4.272 2.144-8.736 2.144-13.456 0-4.688-0.88-9.152-2.16-13.44z" />
<glyph unicode="&#xe60c;" d="M637.061 281.747c4.572-17.823 3.914-37.798 2.535-58.088 67.172-42.892 78.707-68.781 78.224-73.024-0.1-0.153-12.852-15.357-86.397-9.98-9.459 0.697-19.394 1.7-29.718 3.002 8.387 25.291 12.982 52.274 12.982 80.338 0 141.168-114.844 256.004-256.012 256.004-108.156 0-200.804-67.456-238.242-162.476-61.734 40.517-72.694 64.989-72.234 69.11 0.099 0.161 10.853 16.414 84.314 11.060 9.842 18.145 25.605 32.767 41.881 44.317-10.325 1.226-25.345 1.861-36.243 2.658-79.067 5.783-123.322-7.897-135.301-41.835-12.791-36.228 17.486-77.619 92.563-126.569 3.623-2.359 7.544-4.718 11.328-7.085-2.627-14.675-4.075-29.756-4.075-45.174 0-141.161 114.844-255.996 256.011-255.996 95.305 0 178.561 52.389 222.625 129.84 16.383-2.389 32-4.166 46.591-5.247 79.052-5.767 123.299 7.897 135.278 41.851 16.651 47.097-44.34 100.452-126.11 147.296zM358.676 17.555c-113.847 0-206.464 92.593-206.464 206.448 0 6.196 0.321 12.316 0.865 18.375 46.201-24.893 99.877-49.165 157.712-71.032 1.555 16.72 7.468 32.169 16.598 45.228-60.868 23.047-117.019 48.805-163.779 74.954 28.048 80.767 104.863 138.94 195.059 138.94 113.832 0 206.463-92.616 206.463-206.456 0-25.467-4.664-49.847-13.128-72.38-16.942 3.217-34.543 7.031-52.658 11.413 0-0.161 0.015-0.284 0.015-0.452 0-16.766-4.435-32.498-12.14-46.178 14.147-3.423 27.995-6.502 41.521-9.267-37.255-54.075-99.586-89.591-170.067-89.591zM467.416 161.382c0-35.347-28.654-64.001-64.001-64.001s-64.001 28.654-64.001 64.001c0 35.347 28.654 64.001 64.001 64.001 35.347 0 64.001-28.654 64.001-64.001z" horiz-adv-x="766" />
<glyph unicode="&#xe60d;" d="M529.062 266.199c-29.455 0-54.127-20.136-61.195-47.375l-52.764 1.603c-3.538 24.046-14.201 45.722-29.822 62.877l66.667 93.936c6.147-3.509 13.258-5.542 20.847-5.542 23.301 0 42.199 18.891 42.199 42.199s-18.898 42.199-42.199 42.199-42.199-18.891-42.199-42.199c0-10.55 3.897-20.171 10.296-27.564l-79.904-82.57c-18.526 11.78-40.442 18.701-64.022 18.701-25.242 0-48.627-7.872-67.926-21.226l-57.145 54.943c3.503 6.758 5.507 14.411 5.507 22.548 0 27.19-22.042 49.232-49.232 49.232s-49.232-22.042-49.232-49.232 22.042-49.232 49.232-49.232c7.448 0 14.481 1.702 20.811 4.663l52.686-59.269c-15.163-20.044-24.264-44.922-24.264-71.993 0-17.668 3.932-34.377 10.81-49.471l-63.088-38.24c-12.365 10.788-28.491 17.38-46.186 17.38-38.844 0-70.332-31.488-70.332-70.332s31.487-70.332 70.332-70.332 70.332 31.488 70.332 70.332c0 7.561-1.222 14.832-3.431 21.662l58.551 43.375c21.923-26.803 55.245-43.937 92.577-43.937 60.064 0 109.639 44.345 118.137 102.045l52.764 1.603c7.069-27.248 31.741-47.382 61.196-47.382 34.962 0 63.299 28.337 63.299 63.299s-28.337 63.299-63.299 63.299z" horiz-adv-x="608" />
<glyph unicode="&#xe60e;" d="M459.868 438.722c-20.357 38.057-67.733 52.388-105.79 31.995-33.541-17.986-48.558-56.883-37.77-91.934l-135.076-72.325c-14.336 17.506-35.84 28.944-60.252 28.944-43.187 0-78.162-35.031-78.162-78.178 0-43.187 34.975-78.198 78.162-78.198 16.333 0 31.529 5.089 44.078 13.68l111.202-105.743c-18.867-30.771-14.387-71.542 12.784-97.444 31.278-29.758 80.743-28.487 110.51 2.791 29.737 31.339 28.529 80.778-2.775 110.515-27.571 26.25-69.238 28.293-99.164 6.999l-110.853 105.447c7.751 12.185 12.4 26.46 12.4 41.959 0 7.522-1.413 14.582-3.364 21.442l135.572 72.647c23.327-27.612 63.447-36.147 96.543-18.447 38.036 20.368 52.388 67.758 31.954 105.851z" />
<glyph unicode="&#xe60f;" d="M492.083 114.739c0-53.176-43.141-96.276-96.338-96.276-53.105 0-96.205 43.1-96.205 96.276 0 53.156 43.1 96.246 96.205 96.246 53.197 0 96.338-43.090 96.338-96.246zM166.554 261.427c0-40.489-32.829-73.349-73.308-73.349-40.52 0-73.319 32.86-73.319 73.349 0 40.51 32.798 73.349 73.319 73.349 40.478 0 73.308-32.839 73.308-73.349zM387 372.214c0-31.642-25.702-57.314-57.324-57.314-31.642 0-57.303 25.672-57.303 57.314 0 31.652 25.661 57.334 57.303 57.334 31.621-0.010 57.324-25.692 57.324-57.334zM388.342 123.443c-7.301-17.52-30.3-24.596-51.303-15.81l-211.528 88.31c-21.053 8.755-32.154 30.096-24.822 47.606v0c7.301 17.531 30.269 24.606 51.303 15.841l211.528-88.341c21.022-8.745 32.144-30.085 24.822-47.606v0zM99.502 262.574c-6.635 12.513 0.328 29.225 15.555 37.315l153.303 81.346c15.237 8.079 32.983 4.485 39.639-8.038v0c6.615-12.493-0.338-29.225-15.596-37.294l-153.282-81.346c-15.196-8.11-32.963-4.516-39.618 8.018v0z" />
<glyph unicode="&#xe610;" d="M468.572 60.667c-7.147 22.83-30.827 25.974-50.611 35.164-21.719 10.082-45.798 21.724-67.476 31.509-6.175 1.853-12.365 3.682-18.55 5.534-7.378 5.601-14.356 24.176-18.304 33.408-3.932 0.625-6.43 1.408-11.55 2.022 0 0.026 0 4.495 0 4.495h-8.002c10.265 5.12 25.769 15.58 30.863 25.2l9.031 50.463 0.128-0.537 1.387 8.418c0.046-0.010 0.082-0.154 0.123-0.159 8.377-1.352 17.598 12.559 20.587 31.15s-1.372 34.724-9.748 36.071c-2.068 0.327-4.194-0.292-6.267-1.674 1.351 16.532 1.377 30.464 0.261 42.219 0.226 2.146 0.384 4.444 0.45 6.953 0.251 9.6 10.926 40.171 0.952 48.005-1.889 1.485-6.687 0.174-10.307-0.087-19.394-1.388-40.043 21.053-68.787 23.849-35.876 3.481-71.531-16.144-74.578-37.847-2.038-0.010-4.47-0.389-7.373-1.219-8.806-2.509-17.326-15.718-18.647-38.722-1.459-25.36-0.24-37.417 2.478-43.202-0.164-0.077-0.317-0.149-0.476-0.22-2.181 1.552-4.423 2.258-6.62 1.905-8.376-1.346-12.738-17.511-9.749-36.101 2.99-18.59 12.206-32.573 20.583-31.222 0.2 0.031 0.389 0.077 0.583 0.128l5.222-31.98 5.079-26.695c4.997-9.436 20.091-19.574 30.382-24.694h-7.567l-7.204-4.229c-3.947-9.241-11.177-28.985-18.56-34.575-6.185-1.858-12.375-4.291-18.56-6.139-21.668-9.784-45.752-21.781-67.472-31.862-19.778-9.19-43.459-12.365-50.606-35.19 0-15.498-1.326-52.721-0.962-72.325h430.817c0.368 19.604-0.952 56.683-0.952 72.187z" />
<glyph unicode="&#xe611;" d="M255.995 449.26c-124.409 0-225.261-100.851-225.261-225.26 0-124.414 100.851-225.26 225.261-225.26 124.419 0 225.27 100.846 225.27 225.261 0 124.409-100.851 225.261-225.27 225.261zM255.995 29.719c-107.125 0-194.286 87.15-194.286 194.281 0 107.125 87.161 194.286 194.286 194.286 107.137 0 194.286-87.161 194.286-194.286 0-107.131-87.15-194.28-194.286-194.28zM262.994 247.546c-2.219 0.671-4.516 1.132-6.938 1.132-13.335 0-24.189-10.852-24.189-24.194 0-13.347 10.852-24.194 24.189-24.194 13.347 0 24.199 10.846 24.199 24.194 0 2.619-0.524 5.091-1.29 7.451l68.785 79.637-6.24 6.235-78.516-70.26zM401.678 131.464l-33.529 19.358 7.749 13.421 33.529-19.358-7.749-13.421zM389.932 232.228h38.723v-15.487h-38.723v15.487zM401.662 317.496l7.762-13.415-33.514-19.389-7.762 13.415 33.514 19.389zM329.693 336.556l-13.415 7.75 19.366 33.525 13.415-7.75-19.366-33.525zM248.313 397.094h15.487v-38.729h-15.487v38.729zM163.035 370.085l13.415 7.75 19.367-33.525-13.415-7.75-19.367 33.525zM110.434 317.499l33.529-19.359-7.744-13.412-33.529 19.358 7.743 13.412zM83.441 232.222h38.729v-15.487h-38.729v15.487zM110.461 131.454l-7.749 13.415 33.531 19.37 7.75-13.415-33.531-19.37zM294.791 148.935h-77.469c-14.941 0-27.105-12.159-27.105-27.105v-18.067c0-14.935 12.163-27.1 27.105-27.1h77.469c14.947 0 27.105 12.159 27.105 27.1v18.067c0 14.947-12.159 27.105-27.105 27.105z" />
<glyph unicode="&#xe612;" d="M215.632 293.284c5.457 1.47 8.69 7.057 7.226 12.491-1.47 5.469-7.051 8.667-12.463 7.231-5.469-1.47-8.69-7.057-7.231-12.491 1.447-5.452 7.029-8.701 12.468-7.231zM281.043 313.006c-5.412 1.442-11.027-1.757-12.497-7.197-1.442-5.468 1.791-11.054 7.219-12.525 5.44-1.47 11.033 1.779 12.502 7.231 1.476 5.435-1.774 11.021-7.226 12.491zM327.826 277.662c-3.982-4.004-3.982-10.43 0-14.429 4.010-3.998 10.447-3.998 14.445 0 3.942 3.998 3.942 10.43 0 14.428-3.998 3.993-10.435 3.993-14.445 0zM357.882 211.158c1.493-5.469 7.068-8.651 12.485-7.214 5.469 1.453 8.69 7.073 7.231 12.491-1.453 5.44-7.022 8.684-12.485 7.231-5.457-1.47-8.656-7.056-7.231-12.508zM370.39 158.266c-5.445 1.442-11.021-1.779-12.519-7.226-1.425-5.445 1.779-11.027 7.236-12.497 5.452-1.47 11.021 1.757 12.485 7.231 1.464 5.406-1.762 11.027-7.202 12.491zM327.826 98.954c-3.982-3.965-3.982-10.441 0-14.411 4.010-3.993 10.447-3.993 14.445 0 3.942 3.976 3.942 10.452 0 14.411-3.998 4.015-10.435 4.015-14.445 0zM275.773 68.897c-5.428-1.436-8.661-7.034-7.219-12.463 1.47-5.479 7.029-8.667 12.497-7.231 5.445 1.453 8.695 7.039 7.226 12.491-1.47 5.423-7.062 8.673-12.502 7.202zM215.632 68.897c-5.44 1.47-11.021-1.762-12.475-7.202-1.47-5.445 1.762-11.038 7.231-12.491 5.412-1.447 11.004 1.786 12.463 7.231 1.47 5.423-1.762 11.027-7.22 12.463zM149.156 98.954c-3.999-3.965-3.999-10.441 0-14.411 3.976-3.993 10.429-3.993 14.423 0 3.97 3.976 3.97 10.452 0 14.411-3.993 4.015-10.447 4.015-14.423 0zM121.043 158.237c-5.44-1.442-8.689-7.034-7.231-12.463 1.47-5.479 7.056-8.678 12.497-7.231 5.451 1.47 8.667 7.039 7.231 12.497-1.476 5.445-7.062 8.667-12.497 7.197zM126.309 223.659c-5.44 1.458-11.027-1.779-12.497-7.231-1.459-5.418 1.79-11.038 7.231-12.491 5.44-1.436 11.021 1.752 12.497 7.214 1.436 5.452-1.786 11.044-7.231 12.508zM464.489 326.414l-55.905 55.905c-7.354 7.354-19.271 7.344-26.615 0-7.354-7.354-7.354-19.271 0-26.627l16.129-16.129-12.981-12.976c-30.557 29.031-70.192 48.595-114.159 53.94v40.435h17.666c13.51 0 24.464 10.959 24.464 24.476 0 13.505-10.948 24.469-24.464 24.469h-85.838c-13.516 0-24.47-10.959-24.47-24.469 0-13.516 10.948-24.476 24.47-24.476h19.238v-40.435c-99.556-12.108-176.94-97.14-176.94-199.913 0-111.051 90.348-201.404 201.404-201.404 111.061 0 201.416 90.355 201.416 201.41 0 43.831-14.090 84.442-37.964 117.538l14.783 14.783 13.139-13.139c3.678-3.678 8.498-5.519 13.308-5.519 4.82 0 9.642 1.841 13.313 5.519 7.354 7.338 7.354 19.265 0.005 26.609zM246.488 16.861c-90.298 0-163.762 73.465-163.762 163.762 0 90.287 73.459 163.751 163.762 163.751 90.303 0 163.762-73.465 163.762-163.751 0-90.303-73.459-163.762-163.762-163.762zM263.558 200.592c-1.233 1.211-2.524 2.236-3.886 3.166l0.113 0.151-97.85 73.751c-3.999 3.987-10.447 3.987-14.411 0-3.999-4.004-3.999-10.429 0-14.428l73.734-97.839 0.147 0.123c0.929-1.38 1.977-2.687 3.171-3.892 10.762-10.756 28.214-10.756 38.976 0 10.723 10.745 10.723 28.204 0.005 38.966z" />
<glyph unicode="&#xe613;" d="M427.961 37.56l-171.961 171.96-171.96-171.961-14.48 14.479 171.955 171.96-171.955 171.955 14.48 14.485 171.96-171.955 171.961 171.955 14.479-14.48-171.96-171.961 171.961-171.961z" />
<glyph unicode="&#xe614;" d="M434.959 76.708c59.971 80.415 58.916 192.113-3.353 271.303l12.728 12.728c5.765 5.781 5.781 15.145 0 20.925l-20.921 20.925c-5.776 5.786-15.15 5.781-20.946 0l-13.332-13.337c-38.313 28.595-84.464 44.272-133.125 44.272-48.697 0-94.843-15.688-133.15-44.272l-13.496 13.486c-5.77 5.785-15.155 5.785-20.936 0l-20.915-20.925c-5.776-5.776-5.776-15.145 0-20.921l12.882-12.882c-62.213-79.104-63.319-190.633-3.533-271.048l-12.18-12.16c-5.77-5.786-5.77-15.171 0-20.921l20.941-20.966c5.76-5.735 15.145-5.735 20.921 0l11.535 11.541c39.204-30.894 87.219-47.8 137.933-47.8 50.57 0 98.519 16.85 137.667 47.632l8.505-8.499c5.77-5.776 15.15-5.776 20.935 0l20.915 20.925c5.786 5.77 5.765 15.155 0 20.921l-9.072 9.072zM256.010 405.166c41.067 0 80.103-12.79 112.865-36.173l-42.087-42.076c-21.135 12.877-45.399 19.901-70.779 19.901-25.395 0-49.659-7.024-70.815-19.901l-42.082 42.076c32.778 23.383 71.808 36.173 112.896 36.173zM316.841 112.108c-18.125-11.269-38.978-17.418-60.851-17.418-22.395 0-43.797 6.416-62.203 18.243 1.49 5.033 0.446 10.665-3.528 14.638l-20.93 20.93c-3.564 3.558-8.478 4.659-13.102 3.82-21.602 37.386-20.649 84.306 3.062 120.745 4.638-0.865 9.579 0.21 13.168 3.81l20.93 20.93c3.205 3.205 4.434 7.501 4.096 11.684 17.561 10.378 37.586 16.046 58.532 16.046 20.976 0 41.031-5.678 58.619-16.112-0.266-4.106 0.993-8.31 4.152-11.443l20.921-20.935c3.527-3.523 8.371-4.629 12.933-3.845 23.486-36.009 24.745-82.304 3.952-119.465-5.514 2.688-12.293 1.904-16.891-2.688l-20.921-20.925c-4.915-4.915-5.392-12.324-1.94-18.012zM97.136 97.244c-49.034 68.966-47.856 162.724 3.522 230.492l41.702-41.707c-29.46-44.083-30.439-101.622-3.149-146.714l-42.076-42.071zM256.010 15.038c-43.115 0-83.958 14.075-117.668 39.68l41.687 41.707c22.303-14.961 48.528-23.014 75.966-23.014 27.356 0 53.478 7.987 75.74 22.835l41.702-41.712c-33.69-25.508-74.445-39.495-117.427-39.495zM414.69 96.978l-42.082 42.087c27.443 45.118 26.547 102.779-2.98 146.969l41.707 41.723c51.435-67.861 52.557-161.776 3.353-230.779z" />
<glyph unicode="&#xe615;" d="M254.558 455.161c-127.608 0-231.422-103.814-231.422-231.422 0-35.723 8.232-69.498 22.748-99.721-7.017-7.075-7.005-18.51 0.052-25.555 3.535-3.534 8.173-5.308 12.813-5.308 4.633 0 9.278 1.773 12.813 5.308l261.547 261.547c7.075 7.075 7.075 18.545 0 25.62-7.080 7.075-18.538 7.075-25.625 0l-244.095-244.107c-10.9 25.241-16.993 53.012-16.993 82.218 0 114.784 93.379 208.169 208.169 208.169s208.163-93.385 208.163-208.169-93.385-208.169-208.169-208.169c-66.881 0-126.458 31.734-164.569 80.909l-16.55-16.557c42.431-53.331 107.825-87.606 181.113-87.606 127.602 0 231.427 103.808 231.427 231.422s-103.82 231.422-231.422 231.422zM342.275 355.206c0 0-49.233-49.006-87.716-89.019 25.481-19.899 55.773-90.996 30.509-123.044 27.555 19.731 60.539 48.774 92.286 72.219 20.649 16.382 2.406 117.353-35.077 139.844zM200.535 152.077c26.73 20.725 35.933-1.663 49.209-13.685 9.034-8.185 21.654-5.721 29.474 9.336 10.057 19.37 7.173 43.21-3.267 67.632 0 0-61.325-46.169-75.416-63.284zM279.132 128.772c-27.107-17.498-37.251 4.993-44.721 11.987-4.935 4.61-20.963 15.707-28.59 2.406-16.288-28.421 88.833-107.772 100.483-101.123 11.638 6.656 0.43 69.202 5.401 108.621-2.553-1.965-9.365-6.918-32.572-21.893z" />
<glyph unicode="&#xe616;" d="M352.064 480c-88.368 0-160-71.648-160-160 0-20.56 4.304-40.016 11.408-58.064l-194.384-194.368c-5.616-5.632-9.088-10.976-9.088-19.568v-48c0-17.12 14.864-32 32-32h48c8.576 0 14 3.44 19.616 9.024l22.96 22.976h37.488c17.664 0 32 14.336 32 32v32h32c17.664 0 32 14.336 32 32v37.504l37.904 37.936c18.064-7.12 37.504-11.44 58.096-11.44 88.336 0 160 71.648 160 160s-71.664 160-160 160zM352.064 192c-23.68 0-45.632 6.88-64.656 18.112l-5.504-5.488-48.48-48.496c-6-6-9.376-14.128-9.376-22.624v-37.504h-32c-17.664 0-32-14.32-32-32v-32h-37.472c-8.48 0-16.624-3.376-22.624-9.376l-22.688-22.688-45.216 0.064-0.048 45.6 186.64 186.304c0 0 0-0.016 0.016-0.032l23.504 23.504c-11.232 19.024-18.112 40.96-18.112 64.64 0 70.688 57.328 128 128 128s128-57.312 128-128-57.296-128.016-127.984-128.016zM445.12 348.176c-17.936 24.992-39.776 46.8-64.88 64.864-4.080 2.96-9.36 3.696-14.112 2.032-22.224-7.824-37.44-23.024-45.216-45.248-0.592-1.664-0.88-3.392-0.88-5.104 0-3.184 0.992-6.336 2.912-9.008 18-25.024 39.808-46.848 64.848-64.848 4.096-2.944 9.344-3.696 14.096-2.048 22.256 7.776 37.472 23.008 45.28 45.248 0.592 1.664 0.88 3.392 0.88 5.104-0.016 3.184-1.024 6.336-2.928 9.008zM397.12 303.84c-23.648 17.008-44.24 37.6-61.12 60.688 6.192 17.648 17.776 29.232 34.912 35.536 23.664-17.040 44.224-37.584 61.056-60.976-6.256-17.52-17.808-29.040-34.848-35.248z" />
<glyph unicode="&#xe617;" d="M93.746 213.689c-36.023 0-65.335-29.312-65.335-65.335 0-36.029 29.311-65.341 65.335-65.341s65.335 29.312 65.335 65.341c0 36.024-29.311 65.335-65.335 65.335zM93.746 109.439c-21.457 0-38.91 17.457-38.91 38.914s17.457 38.909 38.91 38.909 38.909-17.457 38.909-38.909c0-21.463-17.457-38.914-38.91-38.914zM256 213.689c-36.024 0-65.335-29.312-65.335-65.335 0-36.029 29.311-65.341 65.335-65.341s65.335 29.312 65.335 65.341c0 36.024-29.312 65.335-65.335 65.335zM256 109.439c-21.458 0-38.91 17.457-38.91 38.914s17.457 38.909 38.91 38.909 38.909-17.457 38.909-38.909c0-21.463-17.452-38.914-38.91-38.914zM256 375.557c-36.024 0-65.335-29.307-65.335-65.341 0-36.024 29.311-65.33 65.335-65.33s65.335 29.306 65.335 65.33c0 36.034-29.312 65.341-65.335 65.341zM256 271.308c-21.458 0-38.91 17.457-38.91 38.904 0 21.463 17.457 38.914 38.91 38.914s38.909-17.457 38.909-38.914c0-21.447-17.452-38.904-38.91-38.904zM418.255 213.689c-36.024 0-65.335-29.312-65.335-65.335 0-36.029 29.312-65.341 65.335-65.341s65.335 29.312 65.335 65.341c0.005 36.024-29.306 65.335-65.335 65.335zM418.255 109.439c-21.457 0-38.909 17.457-38.909 38.914s17.457 38.909 38.909 38.909 38.909-17.457 38.909-38.909c0.005-21.463-17.452-38.914-38.909-38.914zM405.041 201.839v45.69c0 27.683-22.526 50.209-50.209 50.209h-49.062v26.426h49.062c42.255 0 76.635-34.385 76.635-76.635v-45.69h-26.426zM211.303 297.733h-54.817c-27.684 0-50.209-22.526-50.209-50.209v-45.69h-26.426v45.69c0 42.25 34.38 76.635 76.635 76.635h54.817v-26.426zM242.787 194.995h26.426v61.615h-26.426v-61.615z" />
<glyph unicode="&#xe618;" d="M0 448v-448h512v448h-512zM480 32h-448v384h448v-384zM448 384h-384v-320h384v320zM224 224h-32v-32h-32v-32h-32v32h32v32h32v32h-32v32h-32v32h32v-32h32v-32h32v-32zM352 160h-96v32h96v-32z" />
<glyph unicode="&#xe619;" d="M192 174.277v57.113c0 7.564 3.348 14.718 9.427 20.143 6.080 5.424 14.096 8.413 22.573 8.413v28.555c-35.2 0-64-25.7-64-57.111v-42.833c0-7.886-7.164-14.279-16-14.279h-16v-28.555h16c8.837 0 16-6.395 16-14.279v-42.838c0-31.407 28.8-57.107 64-57.107v28.556c-8.477 0-16.494 2.988-22.573 8.413-6.079 5.426-9.427 12.577-9.427 20.139v57.117c0 7.885-7.164 14.277-16 14.277 8.837-0.001 16 6.394 16 14.276zM320 145.723v-57.117c0-7.562-3.348-14.713-9.427-20.139-6.079-5.425-14.095-8.413-22.573-8.413v-28.556c35.201 0 64 25.7 64 57.107v42.838c0 7.886 7.164 14.279 16 14.279h16v28.555h-16c-8.836 0-16 6.395-16 14.279v42.834c0 31.412-28.799 57.111-64 57.111v-28.555c8.479 0 16.494-2.989 22.573-8.415 6.080-5.424 9.427-12.578 9.427-20.142v-57.114c0-7.883 7.164-14.276 16-14.276-8.836 0.001-16-6.394-16-14.276zM451.716 380.285l-71.432 71.431c-15.556 15.556-46.284 28.284-68.284 28.284h-240c-22 0-40-18-40-40v-432c0-22 18-40 40-40h368c22 0 40 18 40 40v304c0 22-12.728 52.729-28.284 68.285zM429.089 357.657c1.565-1.565 3.125-3.487 4.64-5.657h-81.729v81.728c2.17-1.515 4.092-3.075 5.657-4.64l71.432-71.431zM448 8c0-4.336-3.664-8-8-8h-368c-4.336 0-8 3.664-8 8v432c0 4.336 3.664 8 8 8h240c2.416 0 5.127-0.305 8-0.852v-127.148h127.148c0.547-2.873 0.852-5.583 0.852-8v-304z" />
<glyph unicode="&#xe61a;" d="M224 192l-32 32-96-96 96-96 32 32-64 64zM288 64l32-32 96 96-96 96-32-32 64-64zM451.716 380.285l-71.432 71.431c-15.556 15.556-46.284 28.284-68.284 28.284h-240c-22 0-40-18-40-40v-432c0-22 18-40 40-40h368c22 0 40 18 40 40v304c0 22-12.728 52.729-28.284 68.285zM429.089 357.657c1.565-1.565 3.125-3.487 4.64-5.657h-81.729v81.728c2.17-1.515 4.092-3.075 5.657-4.64l71.432-71.431zM448 8c0-4.336-3.664-8-8-8h-368c-4.336 0-8 3.664-8 8v432c0 4.336 3.664 8 8 8h240c2.416 0 5.127-0.305 8-0.852v-127.148h127.148c0.547-2.873 0.852-5.583 0.852-8v-304z" />
<glyph unicode="&#xe61b;" d="M350.49 241.748l-158.924 190.647c-6.575 7.9-18.335 8.97-26.229 2.372-7.912-6.61-8.982-18.323-2.395-26.229l148.989-178.724-148.989-178.713c-6.575-7.923-5.505-19.643 2.395-26.241 7.889-6.598 19.654-5.529 26.229 2.372l158.924 190.636c2.896 3.465 4.337 7.708 4.337 11.947 0 4.244-1.442 8.482-4.337 11.935z" />
</font>
</defs>
</svg>
