<svg xmlns="http://www.w3.org/2000/svg" xmlns:xlink="http://www.w3.org/1999/xlink" version="1.1" x="0px" y="0px" width="100px" height="100px" viewBox="0 0 100 100" enable-background="new 0 0 100 100" xml:space="preserve">
<g id="Captions">
</g>
<g id="Your_Icon">
	<g>
		<path d="M49.999,10.001C27.908,10.001,10,27.909,10,50c0,22.092,17.908,39.999,39.999,39.999C72.092,89.999,90,72.092,90,50    C90,27.909,72.092,10.001,49.999,10.001z M49.999,84.498C30.977,84.498,15.5,69.023,15.5,50c0-19.022,15.477-34.499,34.499-34.499    c19.024,0,34.499,15.477,34.499,34.499C84.498,69.023,69.023,84.498,49.999,84.498z"/>
		<path d="M51.242,45.819c-0.394-0.119-0.802-0.201-1.232-0.201c-2.368,0-4.295,1.927-4.295,4.296c0,2.37,1.927,4.296,4.295,4.296    c2.37,0,4.297-1.926,4.297-4.296c0-0.465-0.093-0.904-0.229-1.323L66.292,34.45l-1.108-1.107L51.242,45.819z"/>
		<rect x="70.139" y="62.144" transform="matrix(-0.866 -0.5 0.5 -0.866 105.5362 155.3176)" width="6.875" height="2.752"/>
		<rect x="73.782" y="48.539" width="6.876" height="2.75"/>
		<rect x="72.2" y="32.871" transform="matrix(0.5008 0.8656 -0.8656 0.5008 68.1603 -45.5601)" width="2.752" height="6.875"/>
		<rect x="62.24" y="22.91" transform="matrix(-0.8659 -0.5002 0.5002 -0.8659 105.5197 80.9839)" width="2.751" height="6.875"/>
		<rect x="48.635" y="19.264" width="2.75" height="6.877"/>
		<rect x="35.028" y="22.91" transform="matrix(0.8659 -0.5002 0.5002 0.8659 -8.2979 21.7432)" width="2.751" height="6.875"/>
		<rect x="23.005" y="34.933" transform="matrix(0.866 0.5 -0.5 0.866 21.6964 -8.3569)" width="6.875" height="2.75"/>
		<rect x="19.359" y="48.54" width="6.877" height="2.75"/>
		
			<rect x="25.069" y="60.083" transform="matrix(-0.5002 -0.8659 0.8659 -0.5002 -15.3294 118.1942)" width="2.751" height="6.876"/>
		<path d="M56.888,63.329H43.132c-2.653,0-4.813,2.159-4.813,4.813v3.208c0,2.652,2.16,4.812,4.813,4.812h13.756    c2.654,0,4.813-2.159,4.813-4.812v-3.208C61.701,65.488,59.542,63.329,56.888,63.329z"/>
	</g>
</g>
</svg>