<svg xmlns="http://www.w3.org/2000/svg" xmlns:xlink="http://www.w3.org/1999/xlink" version="1.1" id="Base_Icon" x="0px" y="0px" width="100px" height="100px" viewBox="0 0 100 100" enable-background="new 0 0 100 100" xml:space="preserve">
<g id="Base">
	<path id="Outline_and_Pole" fill="#000000" d="M49.752,10.236c-21.951,0-39.809,17.858-39.809,39.809   c0,6.145,1.416,11.955,3.913,17.154c-1.207,1.217-1.205,3.184,0.009,4.396c0.608,0.608,1.406,0.913,2.204,0.913   c0.797,0,1.596-0.305,2.204-0.913l44.991-44.991c1.217-1.217,1.217-3.19,0-4.407c-1.218-1.217-3.189-1.217-4.408,0L16.867,64.188   c-1.875-4.342-2.923-9.119-2.923-14.143c0-19.745,16.063-35.809,35.809-35.809S85.561,30.3,85.561,50.045   S69.497,85.854,49.752,85.854c-11.505,0-21.753-5.459-28.309-13.918l-2.847,2.848c7.299,9.174,18.548,15.07,31.155,15.07   c21.95,0,39.81-17.857,39.81-39.809S71.702,10.236,49.752,10.236z"/>
	<path id="Flag_x2C__root" fill="#000000" d="M64.841,27.43c0,0-8.469,8.43-15.089,15.313c4.383,3.423,9.594,15.653,5.248,21.166   c4.74-3.394,10.414-8.39,15.875-12.423C74.427,48.668,71.289,31.299,64.841,27.43z"/>
	<path id="Flat_x2C__middle" fill="#000000" d="M40.459,62.372c4.598-3.565,6.181,0.286,8.465,2.354   c1.554,1.408,3.725,0.984,5.07-1.606c1.73-3.332,1.234-7.433-0.562-11.634C53.432,51.486,42.883,59.428,40.459,62.372z"/>
	<path id="Flag_x2C__tip" fill="#000000" d="M53.979,66.381c-4.663,3.01-6.408-0.859-7.693-2.062   c-0.849-0.793-3.606-2.702-4.918-0.414c-2.802,4.889,15.281,18.539,17.285,17.395c2.002-1.145,0.074-11.904,0.929-18.685   C59.143,62.953,57.971,63.805,53.979,66.381z"/>
</g>
</svg>