<svg xmlns="http://www.w3.org/2000/svg" xmlns:xlink="http://www.w3.org/1999/xlink" version="1.1" id="Your_Icon" x="0px" y="0px" width="100px" height="100px" viewBox="0 0 100 100" enable-background="new 0 0 100 100" xml:space="preserve">
<g>
	<g>
		<path d="M33.018,24.279c-0.02,0.213-0.051,0.426-0.071,0.638l-0.274-0.274C32.785,24.522,32.896,24.4,33.018,24.279z"/>
		<path d="M35.095,22.759c-0.213,0.02-0.436,0.051-0.649,0.091c0.122-0.132,0.253-0.243,0.385-0.355L35.095,22.759z"/>
		<path d="M71.889,59.553c-0.111,0.122-0.223,0.243-0.344,0.365c0.02-0.213,0.051-0.426,0.071-0.639L71.889,59.553z"/>
		<path d="M70.116,61.347c-0.121,0.132-0.253,0.243-0.385,0.355l-0.263-0.263C69.68,61.418,69.903,61.387,70.116,61.347z"/>
	</g>
	<g>
		<path d="M33.018,24.279c-0.02,0.213-0.051,0.426-0.071,0.638l-0.274-0.274C32.785,24.522,32.896,24.4,33.018,24.279z"/>
		<path fill="#000000" d="M88.64,61.104c-0.993-0.993-2.594-0.993-3.587,0l-5.806,5.806l-3.77-3.77    c11.147-12.282,10.792-31.343-1.054-43.189c-5.908-5.918-13.771-9.171-22.141-9.171c-7.853,0-15.271,2.868-21.047,8.117    l-3.759-3.76l5.806-5.817c0.983-0.983,0.983-2.594,0-3.577c-0.993-0.993-2.594-0.993-3.587,0l-6.881,6.881    c-7.864,7.864-12.191,18.331-12.191,29.478c0,11.137,4.327,21.605,12.191,29.468c7.478,7.478,17.125,11.522,26.935,12.109v6.252    H37.395c-1.409,0-2.533,1.135-2.533,2.533c0,1.399,1.125,2.533,2.533,2.533h29.782c1.399,0,2.533-1.135,2.533-2.533    c0-1.398-1.135-2.533-2.533-2.533H54.815v-6.252c9.809-0.588,19.456-4.631,26.935-12.109l6.891-6.881    C89.623,63.698,89.623,62.097,88.64,61.104z M74.818,55.561c-0.071-3.8-0.811-7.641-2.179-11.319l5.644-5.644    C79.064,44.394,77.909,50.393,74.818,55.561z M77.554,35.03l-6.191,6.192c-1.621-3.425-3.8-6.668-6.486-9.566l7.012-7.012    C74.625,27.714,76.521,31.271,77.554,35.03z M64.614,52.278l5.634-5.644c1.348,4.145,1.834,8.462,1.368,12.647l0.273,0.274    c-0.111,0.122-0.223,0.243-0.344,0.365c0.02-0.213,0.051-0.426,0.071-0.639L64.614,52.278z M54.44,42.104l8.279-8.289    c2.696,2.928,4.834,6.222,6.354,9.698l-6.607,6.617L54.44,42.104z M60.307,52.278L53.7,58.885    c-3.486-1.51-6.779-3.648-9.708-6.344l8.289-8.289L60.307,52.278z M52.281,39.945l-8.026-8.026l6.607-6.607    c3.486,1.51,6.779,3.648,9.708,6.344L52.281,39.945z M50.133,42.104l-8.289,8.289c-2.695-2.929-4.834-6.232-6.354-9.708    l6.617-6.607L50.133,42.104z M39.685,52.541l-7.012,7.012c-2.736-3.07-4.631-6.637-5.664-10.387l6.191-6.191    C34.831,46.4,37.01,49.643,39.685,52.541z M41.844,54.689c2.898,2.685,6.141,4.874,9.566,6.485l-6.202,6.202    c-3.82-1.054-7.357-2.979-10.377-5.675L41.844,54.689z M54.419,62.462c3.689,1.368,7.519,2.108,11.319,2.179    c-4.023,2.422-8.644,3.709-13.457,3.709c-1.186,0-2.351-0.081-3.506-0.243L54.419,62.462z M56.811,60.07l5.644-5.644l7.012,7.012    c0.213-0.02,0.436-0.051,0.648-0.091c-0.121,0.132-0.253,0.243-0.385,0.355l-0.263-0.263    C65.283,61.904,60.956,61.418,56.811,60.07z M69.731,22.506l-7.002,6.992c-2.898-2.675-6.141-4.854-9.566-6.485l6.202-6.202    C63.185,17.875,66.722,19.8,69.731,22.506z M52.281,15.848c1.186,0,2.361,0.081,3.516,0.233l-5.644,5.654c-0.01,0-0.01,0-0.01,0    c-3.678-1.368-7.509-2.108-11.319-2.179C42.847,17.135,47.468,15.848,52.281,15.848z M34.831,22.495l0.264,0.263    c4.185-0.466,8.512,0.02,12.656,1.368l-5.644,5.644l-7.012-7.012c-0.213,0.02-0.436,0.051-0.649,0.091    C34.568,22.718,34.7,22.607,34.831,22.495z M33.018,24.279c-0.02,0.213-0.051,0.426-0.071,0.638l7.012,7.012l-5.654,5.644    c-1.338-4.155-1.824-8.472-1.358-12.657l-0.274-0.274C32.785,24.522,32.896,24.4,33.018,24.279z M31.923,39.955L26.279,45.6    c-0.78-5.796,0.375-11.805,3.466-16.963C29.816,32.436,30.555,36.277,31.923,39.955z M26.39,67.984    c-6.901-6.901-10.701-16.092-10.701-25.881c0-9.292,3.415-18.038,9.647-24.796l3.749,3.749    C17.939,33.338,18.294,52.399,30.14,64.245c5.908,5.908,13.782,9.171,22.142,9.171c7.864,0,15.271-2.878,21.047-8.127l3.739,3.749    C62.729,82.252,40.304,81.898,26.39,67.984z"/>
		<path d="M70.116,61.347c-0.121,0.132-0.253,0.243-0.385,0.355l-0.263-0.263C69.68,61.418,69.903,61.387,70.116,61.347z"/>
	</g>
	<g>
		<path d="M35.095,22.759c-0.213,0.02-0.436,0.051-0.649,0.091c0.122-0.132,0.253-0.243,0.385-0.355L35.095,22.759z"/>
		<path d="M71.889,59.553c-0.111,0.122-0.223,0.243-0.344,0.365c0.02-0.213,0.051-0.426,0.071-0.639L71.889,59.553z"/>
	</g>
</g>
</svg>