<?xml version="1.0" encoding="utf-8"?>
<!-- Generator: Adobe Illustrator 17.1.0, SVG Export Plug-In . SVG Version: 6.00 Build 0)  -->
<!DOCTYPE svg PUBLIC "-//W3C//DTD SVG 1.1//EN" "http://www.w3.org/Graphics/SVG/1.1/DTD/svg11.dtd">
<svg version="1.1" id="Layer_1" xmlns="http://www.w3.org/2000/svg" xmlns:xlink="http://www.w3.org/1999/xlink" x="0px" y="0px"
	 viewBox="0 0 512 512" enable-background="new 0 0 512 512" xml:space="preserve">
<path fill="#00A7CD" d="M450,54c0,0-18-18.1-198-18.1S54,54,54,54S35.9,72,35.9,252S54,450,54,450s18,17.9,198,17.9S450,450,450,450
	s17.9-17.9,17.9-198S450,54,450,54z M417.1,417.1c0,0-15,14.9-165,14.9s-165-14.9-165-14.9s-15.1-15-15.1-165s15.1-165,15.1-165
	s15-15.1,165-15.1s165,15.1,165,15.1S432,102,432,252.1S417.1,417.1,417.1,417.1z"/>
<path fill="#FFD03B" d="M402.9,225.5c-2-13.5-33.3,18.9-49.8,15.7c-16.1-0.6-37.1-13.4-58-15.6c-29.2-2.4-39.3,14.3-58.9,14.1
	c-3.1-25.6,4.5-56.9-8.5-86.4c-19.1-34-48.6-27.1-57.4-26.2C124.5,142.7,138.7,167,104,184c-24.8,12.2-7.7,18.4,3.2,23.7
	c18.6,5.5,31.4,4.1,36.1,22.9c-1,24.8-21,51.8-17.8,84.8c7.7,22.5,20.3,59.5,47.5,60.8c64.8,1.9,139.8,4.5,176.6-6
	C378.3,363.6,414.2,245.8,402.9,225.5z"/>
</svg>
