<svg xmlns="http://www.w3.org/2000/svg" xmlns:xlink="http://www.w3.org/1999/xlink" version="1.1" id="Layer_1" x="0px" y="0px" width="86px" height="85.833px" viewBox="0 0 86 85.833" enable-background="new 0 0 86 85.833" xml:space="preserve">
<path d="M42.842,10.008c-1.692,0-3.354,0.128-4.977,0.375l-0.141-0.062c-0.014,0.03-0.025,0.062-0.039,0.092  c-15.684,2.474-27.678,16.048-27.678,32.427c0,18.134,14.7,32.833,32.834,32.833c18.133,0,32.833-14.699,32.833-32.833  C75.675,24.708,60.975,10.008,42.842,10.008z M36.004,46.236c-0.518-0.258-1.069-0.458-1.65-0.58  c0.043-4.193,0.371-8.365,0.984-12.462c1.929-0.4,3.558-1.608,4.533-3.25c4.707,1.359,9.229,3.502,13.481,6.331  c-0.109,0.335-0.19,0.683-0.247,1.038C47.041,39.157,41.282,42.167,36.004,46.236z M29.252,58.277  c0.589,0.37,1.236,0.651,1.927,0.832c0.493,3.709,1.205,7.361,2.138,10.94c-3.314-1.163-6.354-2.914-8.991-5.13  C25.869,62.557,27.516,60.341,29.252,58.277z M66.798,39.186c0.209-0.003,0.417-0.011,0.627-0.011c1.345,0,2.693,0.083,4.035,0.204  c0.137,1.136,0.215,2.29,0.215,3.462c0,1.739-0.163,3.44-0.46,5.096c-1.65-2.208-3.391-4.28-5.216-6.203  C66.42,40.962,66.697,40.101,66.798,39.186z M70.665,35.29c-1.08-0.072-2.162-0.115-3.24-0.115c-0.462,0-0.923,0.012-1.383,0.025  c-1.16-2.195-3.463-3.693-6.117-3.693c-1.609,0-3.087,0.555-4.262,1.477c-4.664-3.116-9.648-5.455-14.84-6.933  c-0.112-2.099-1.156-3.945-2.729-5.137c0.7-2.316,1.491-4.588,2.38-6.8c0.782-0.064,1.57-0.105,2.368-0.105  C56.127,14.008,67.337,23.043,70.665,35.29z M35.903,14.857c-0.565,1.534-1.087,3.092-1.568,4.67  c-0.137-0.008-0.271-0.021-0.41-0.021c-3.032,0-5.603,1.954-6.536,4.669c-2.319,0.002-4.635,0.185-6.932,0.518  C24.346,19.906,29.735,16.387,35.903,14.857z M14.008,42.841c0-4.874,1.22-9.466,3.363-13.495c3.244-0.748,6.553-1.151,9.871-1.165  c0.558,2.126,2.096,3.851,4.108,4.659c-0.638,4.332-0.975,8.74-1.002,13.168c-2.543,1.021-4.341,3.507-4.341,6.416  c0,0.993,0.214,1.937,0.591,2.79c-1.831,2.138-3.565,4.437-5.198,6.881C16.809,56.985,14.008,50.235,14.008,42.841z M42.842,71.674  c-1.726,0-3.413-0.161-5.056-0.453c-1.155-3.994-2.021-8.092-2.593-12.27c2.704-0.939,4.648-3.504,4.648-6.527  c0-1.233-0.327-2.39-0.893-3.393c4.577-3.445,9.522-6.036,14.709-7.694c1.101,2.362,3.488,4.003,6.267,4.003  c1.155,0,2.241-0.287,3.198-0.788c2.4,2.531,4.648,5.332,6.722,8.387C65.743,63.871,55.188,71.674,42.842,71.674z"/>
<g>
	<path d="M-57.67,33.187c-0.613,4.097-0.941,8.269-0.984,12.462c0.581,0.122,1.133,0.322,1.65,0.58   c5.278-4.07,11.037-7.079,17.102-8.923c0.057-0.355,0.138-0.703,0.247-1.038c-4.252-2.829-8.774-4.972-13.482-6.331   C-54.112,31.578-55.741,32.786-57.67,33.187z"/>
	<path d="M-54.914,20.906c1.573,1.192,2.617,3.039,2.729,5.137c5.192,1.478,10.176,3.816,14.84,6.933   c1.175-0.922,2.652-1.477,4.262-1.477c2.654,0,4.957,1.498,6.117,3.693c0.46-0.013,0.921-0.025,1.383-0.025   c1.079,0,2.163,0.043,3.243,0.115C-25.667,23.034-36.882,14-50.17,14c-0.797,0-1.584,0.041-2.366,0.105   C-53.422,16.318-54.214,18.59-54.914,20.906z"/>
	<path d="M-26.21,39.178c-0.101,0.915-0.378,1.776-0.799,2.547c1.828,1.926,3.562,4.014,5.214,6.225   c0.3-1.663,0.465-3.372,0.465-5.12c0-1.171-0.078-2.324-0.215-3.459c-1.343-0.122-2.692-0.204-4.038-0.204   C-25.793,39.167-26.001,39.175-26.21,39.178z"/>
	<path d="M-65.619,24.168c0.934-2.715,3.504-4.669,6.536-4.669c0.138,0,0.273,0.013,0.41,0.021c0.481-1.578,1.004-3.137,1.569-4.671   c-6.171,1.529-11.562,5.049-15.451,9.838C-70.257,24.354-67.939,24.17-65.619,24.168z"/>
	<path d="M-29.885,44.544c-0.957,0.5-2.043,0.788-3.198,0.788c-2.778,0-5.166-1.641-6.267-4.003   c-5.186,1.659-10.132,4.25-14.709,7.694c0.566,1.003,0.893,2.159,0.893,3.393c0,3.023-1.945,5.588-4.649,6.527   c0.573,4.18,1.448,8.277,2.601,12.275c1.639,0.291,3.323,0.451,5.044,0.451c12.349,0,22.907-7.807,27.01-18.74   C-25.236,49.878-27.484,47.076-29.885,44.544z"/>
	<path d="M-66.409,55.206C-66.787,54.353-67,53.409-67,52.416c0-2.909,1.798-5.395,4.341-6.416   c0.027-4.429,0.364-8.837,1.001-13.168c-2.012-0.808-3.55-2.533-4.108-4.659c-3.318,0.014-6.628,0.418-9.873,1.166   C-77.781,33.366-79,37.958-79,42.83c0,7.395,2.799,14.146,7.39,19.257C-69.977,59.642-68.241,57.345-66.409,55.206z"/>
	<path d="M-63.755,58.27c-1.737,2.064-3.381,4.284-4.927,6.647c2.639,2.217,5.679,3.967,8.995,5.131   c-0.928-3.582-1.647-7.234-2.141-10.946C-62.519,58.921-63.167,58.64-63.755,58.27z"/>
</g>
</svg>