<svg width="100" height="100" xmlns="http://www.w3.org/2000/svg">
 <g>
  <title>Layer 1</title>
  <g id="Captions"/>
  <g id="Your_Icon">
   <path id="svg_55" d="m82,44c-4.188004,0 -7.695999,2.862999 -8.700996,6.736l-7.502007,-0.228001c-0.502998,-3.418999 -2.018997,-6.500999 -4.239998,-8.939999l9.479004,-13.356001c0.874001,0.499001 1.884995,0.788 2.963997,0.788c3.313004,0 6,-2.686001 6,-6s-2.686996,-6 -6,-6s-6,2.686001 -6,6c0,1.5 0.554001,2.868 1.463997,3.919001l-11.360996,11.74c-2.633999,-1.674999 -5.75,-2.659 -9.103001,-2.659c-3.589001,0 -6.914001,1.118999 -9.658001,3.018002l-8.125,-7.812002c0.498001,-0.960999 0.783001,-2.049 0.783001,-3.205999c0,-3.865999 -3.134001,-7 -7,-7s-7,3.134001 -7,7s3.134001,7 7,7c1.059,0 2.059,-0.242001 2.959,-0.662998l7.491001,8.426998c-2.156002,2.849998 -3.450001,6.387001 -3.450001,10.236c0,2.512001 0.558998,4.888 1.536999,7.034l-8.969999,5.437c-1.757999,-1.534 -4.050999,-2.471001 -6.566999,-2.471001c-5.523,0 -10,4.476997 -10,10s4.477,10 10,10s10,-4.476997 10,-10c0,-1.074997 -0.174,-2.109001 -0.488001,-3.080002l8.325003,-6.167c3.116997,3.811005 7.855,6.247002 13.162998,6.247002c8.540001,0 15.588997,-6.305 16.796997,-14.508999l7.502007,-0.228001c1.004997,3.874001 4.512993,6.737 8.700996,6.737c4.971001,0 9,-4.028999 9,-9s-4.028999,-9 -9,-9z"/>
  </g>
 </g>
</svg>