<svg xmlns="http://www.w3.org/2000/svg" xmlns:xlink="http://www.w3.org/1999/xlink" version="1.1" id="Your_Icon" x="0px" y="0px" width="100px" height="100px" viewBox="0 0 100 100" enable-background="new 0 0 100 100" xml:space="preserve">
<path d="M98.569,57.02l-21.291-2.927l-8.256-36.644l-0.012-0.06c-0.389-1.711-1.714-3.139-3.537-3.572  c-2.552-0.605-5.112,0.973-5.717,3.525L48.048,66.696L37.007,32.288l-0.015-0.048c-0.437-1.327-1.514-2.415-2.965-2.803  c-2.286-0.612-4.636,0.746-5.247,3.032l-5.938,22.193L1.464,57.02c-0.633,0.07-1.156,0.57-1.229,1.229  c-0.084,0.763,0.466,1.449,1.229,1.534l24.618,2.715c1.702,0.189,3.342-0.871,3.825-2.573l0.123-0.434l3.177-11.179l11.488,35.134  c0.433,1.292,1.5,2.371,2.918,2.735c2.224,0.571,4.491-0.769,5.062-2.993l0.007-0.026l11.338-44.156l4.502,20.453l0.132,0.603  c0.465,2.084,2.459,3.497,4.611,3.201l25.302-3.479c0.604-0.083,1.104-0.558,1.191-1.191C99.866,57.828,99.332,57.125,98.569,57.02z  "/>
</svg>