<svg xmlns="http://www.w3.org/2000/svg" xmlns:xlink="http://www.w3.org/1999/xlink" version="1.1" id="Your_Icon" x="0px" y="0px" width="100px" height="100px" viewBox="0 0 100 100" enable-background="new 0 0 100 100" xml:space="preserve">
<path fill="#000000" d="M91.518,81.901c-1.396-4.459-6.021-5.073-9.885-6.868c-4.242-1.969-8.945-4.243-13.179-6.154  c-1.206-0.362-2.415-0.719-3.623-1.081c-1.441-1.094-2.804-4.722-3.575-6.525C60.488,61.151,60,60.998,59,60.878  C59,60.873,59,60,59,60h-1.563c2.005-1,5.033-3.043,6.028-4.922l1.764-9.856l0.025,0.105l0.271-1.644  c0.009,0.002,0.016,0.03,0.024,0.031c1.636,0.264,3.437-2.453,4.021-6.084s-0.268-6.782-1.904-7.045  c-0.404-0.064-0.819,0.057-1.224,0.327c0.264-3.229,0.269-5.95,0.051-8.246c0.044-0.419,0.075-0.868,0.088-1.358  c0.049-1.875,2.134-7.846,0.186-9.376c-0.369-0.29-1.306-0.034-2.013,0.017c-3.788,0.271-7.821-4.112-13.435-4.658  c-7.007-0.68-13.971,3.153-14.566,7.392c-0.398,0.002-0.873,0.076-1.44,0.238c-1.72,0.49-3.384,3.07-3.642,7.563  c-0.285,4.953-0.047,7.308,0.484,8.438c-0.032,0.015-0.062,0.029-0.093,0.043c-0.426-0.303-0.864-0.441-1.293-0.372  c-1.636,0.263-2.488,3.42-1.904,7.051c0.584,3.631,2.384,6.362,4.02,6.098c0.039-0.006,0.076-0.015,0.114-0.025l1.02,6.246  l0.992,5.214C35.987,57.02,38.935,59,40.945,60h-1.478l-1.407,0.826c-0.771,1.805-2.183,5.661-3.625,6.753  c-1.208,0.363-2.417,0.838-3.625,1.199c-4.232,1.911-8.936,4.254-13.178,6.223c-3.863,1.795-8.488,2.415-9.884,6.873  c0,3.027-0.259,10.297-0.188,14.126h84.144C91.776,92.171,91.518,84.929,91.518,81.901z"/>
</svg>